<svg xmlns="http://www.w3.org/2000/svg" viewBox="0 0 24 24"><defs><style>.cls-1{fill:#efefef;opacity:0;}.cls-2{fill:#020608;}</style></defs><title>ic_games</title><g id="Layer_2" data-name="Layer 2"><g id="Layer_1-2" data-name="Layer 1"><g id="ic_games"><rect class="cls-1" width="24" height="24"/><path class="cls-2" d="M19,4H18V3a1,1,0,0,0-1-1h0a1,1,0,0,0-1,1V4H8V3A1,1,0,0,0,7,2H7A1,1,0,0,0,6,3V4H5A2,2,0,0,0,3,6V20a2,2,0,0,0,2,2H19a2,2,0,0,0,2-2V6A2,2,0,0,0,19,4ZM18,20H6a1,1,0,0,1-1-1V9H19V19A1,1,0,0,1,18,20ZM8,11h3a1,1,0,0,1,1,1v3a1,1,0,0,1-1,1H8a1,1,0,0,1-1-1V12A1,1,0,0,1,8,11Z"/></g></g></g></svg>