<svg xmlns="http://www.w3.org/2000/svg" viewBox="0 0 24 24"><defs><style>.cls-1{fill:#efefef;opacity:0;}.cls-2{fill:#020608;}</style></defs><title>ic_teams</title><g id="Layer_2" data-name="Layer 2"><g id="Layer_1-2" data-name="Layer 1"><g id="ic_teams"><rect class="cls-1" width="24" height="24"/><path class="cls-2" d="M16,11a3,3,0,1,0-3-3A3,3,0,0,0,16,11Z"/><path class="cls-2" d="M8,11A3,3,0,1,0,5,8,3,3,0,0,0,8,11Z"/><path class="cls-2" d="M8,13c-2.33,0-7,1.17-7,3.5V18a1,1,0,0,0,1,1H14a1,1,0,0,0,1-1V16.5C15,14.17,10.33,13,8,13Z"/><path class="cls-2" d="M16,13c-.29,0-.62,0-1,.05l0,0A4.16,4.16,0,0,1,17,16.5V18a3,3,0,0,1-.18,1H22a1,1,0,0,0,1-1V16.5C23,14.17,18.33,13,16,13Z"/></g></g></g></svg>